<?xml version="1.0" encoding="utf-8"?>
<!-- Generator: Adobe Illustrator 18.1.0, SVG Export Plug-In . SVG Version: 6.00 Build 0)  -->
<svg version="1.1" id="Layer_1" xmlns="http://www.w3.org/2000/svg" xmlns:xlink="http://www.w3.org/1999/xlink" x="0px" y="0px"
	 viewBox="-442 244.7 74.7 72.3" enable-background="new -442 244.7 74.7 72.3" xml:space="preserve">
<g>
	<path fill="#81B3D2" d="M-412.5,288.5v0.5v18.1v1.5v1.5h16v-2v-0.9V289v-0.5v-2.4h-16C-412.5,286.1-412.5,288.5-412.5,288.5z
		 M-399.4,307.1h-10.1V289h10.1V307.1z"/>
	<path fill="#81B3D2" d="M-369.4,284.1l2.1-2.1l-9.9-9.9v-27h-0.9h-2h-7.9l0,0h-2.9v13.2l-13.6-13.6L-442,282l2.1,2.1l7.8-7.8v37.8
		h-3.9v2.9h63.9v-2.9h-5.1v-37.8L-369.4,284.1z M-388.1,248.1h7.9v21.1l-7.9-7.9V248.1z M-380.1,314.1h-49v-40.7l24.5-24.5
		l24.5,24.5V314.1z"/>
	<path fill="#81B3D2" d="M-412.2,271.9c0,4.3,3.5,7.8,7.8,7.8s7.8-3.5,7.8-7.8s-3.5-7.8-7.8-7.8S-412.2,267.6-412.2,271.9z
		 M-404.5,266.9c2.7,0,5,2.2,5,5s-2.2,5-5,5s-5-2.2-5-5S-407.2,266.9-404.5,266.9z"/>
	<rect x="-425.1" y="286.1" fill="#81B3D2" width="3" height="3.9"/>
	<rect x="-419.2" y="286.1" fill="#81B3D2" width="3" height="3.9"/>
	<rect x="-425.1" y="292.1" fill="#81B3D2" width="3" height="3.9"/>
	<rect x="-419.2" y="292.1" fill="#81B3D2" width="3" height="3.9"/>
	<rect x="-393.2" y="286.1" fill="#81B3D2" width="3" height="3.9"/>
	<rect x="-387.2" y="286.1" fill="#81B3D2" width="3" height="3.9"/>
	<rect x="-393.2" y="292.1" fill="#81B3D2" width="3" height="3.9"/>
	<rect x="-387.2" y="292.1" fill="#81B3D2" width="3" height="3.9"/>
</g>
</svg>
