<?xml version="1.0" encoding="utf-8"?>
<!-- Generator: Adobe Illustrator 18.1.0, SVG Export Plug-In . SVG Version: 6.00 Build 0)  -->
<svg version="1.1" id="Layer_1" xmlns="http://www.w3.org/2000/svg" xmlns:xlink="http://www.w3.org/1999/xlink" x="0px" y="0px"
	 viewBox="-448 243.9 63 75.1" enable-background="new -448 243.9 63 75.1" xml:space="preserve">
<path fill="#81B3D2" d="M-387.8,266.1h-0.1h-24.3c13.6-6.8,14.7-11.1,14.2-13.5c-1.1-3.9-5.6-6.9-9.8-5.3c-5.5,2.1-7,10.3-8.5,16.2
	c-1.9-6-3.7-13.6-8-17.5c-1.2-1.1-3-2.2-5.7-2c-4,0.4-9.7,5.3-7.3,10.8c2.2,5.3,9.5,8.7,14.4,11.3h-21.8h-0.3
	c-1.6,0-2.8,1.3-2.8,2.8v11.2c0,1.6,1.3,2.8,2.8,2.8h0.3v33.1v2.4v0.5h57v-0.5v-2.4V283h0.1c1.6,0,2.8-1.3,2.8-2.8V269
	C-385,267.4-386.3,266.1-387.8,266.1z M-406.2,249.8c2.1-0.3,4.9,1.3,5.2,3.2c0.4,2.7-3.3,5.2-5,6.3c-2.5,1.7-4.9,2.6-7.2,4
	C-412.4,259.7-410.7,250.5-406.2,249.8z M-428.8,259.6c-2.2-1.5-6.4-4.4-6.3-7.7c0.1-3.6,5.7-6.5,8.7-3.8c3.8,3.3,5.6,11,7,16.4
	C-422.6,263-425.6,261.7-428.8,259.6z M-422.9,316.1H-442V283h19.1V316.1z M-422.9,280H-445v-10.9h22.1V280z M-412.9,280v3v33.1
	h-7.1V283v-3v-10.9h7.1V280z M-390.9,316.1h-19.1V283h19.1V316.1z M-388,280h-21.9v-10.9h21.9V280z"/>
</svg>
